<svg width="37" height="34" viewBox="0 0 37 34" fill="none" xmlns="http://www.w3.org/2000/svg">
<g clip-path="url(#clip0_276_1024)">
<path fill-rule="evenodd" clip-rule="evenodd" d="M17.9731 6.47988C18.3946 6.47988 18.8101 6.50464 19.2196 6.55418V2.90093C19.0239 2.82663 18.8523 2.70898 18.7078 2.56037C18.4428 2.28793 18.2802 1.91641 18.2802 1.50155C18.2802 1.08978 18.4428 0.71517 18.7078 0.442724C18.9727 0.170279 19.3341 0.00309598 19.7376 0.00309598C20.138 0.00309598 20.5024 0.170279 20.7673 0.442724C21.0323 0.71517 21.1949 1.08669 21.1949 1.50155C21.1949 1.91331 21.0323 2.28793 20.7673 2.56037C20.6258 2.70588 20.4482 2.82663 20.2555 2.90093V6.73065C21.225 6.94737 22.1434 7.30031 22.9925 7.7678V6.35604C22.9925 6.06192 23.2244 5.82353 23.5104 5.82353H27.1357C27.208 5.63467 27.3194 5.4644 27.4579 5.32198C27.7229 5.04954 28.0842 4.88235 28.4877 4.88235C28.8882 4.88235 29.2525 5.04954 29.5175 5.32198C29.7825 5.59443 29.9451 5.96594 29.9451 6.38081C29.9451 6.79257 29.7825 7.16718 29.5175 7.43963C29.2525 7.71207 28.8912 7.87926 28.4877 7.87926C28.0842 7.87926 27.7199 7.71207 27.4609 7.43963C27.3104 7.28483 27.193 7.09597 27.1207 6.88545H24.0343V8.42105C26.1903 9.95666 27.7681 12.2879 28.3643 15.0031H34.9404V9.54489C34.7808 9.47059 34.6333 9.36532 34.5129 9.23839C34.2479 8.96594 34.0853 8.59443 34.0853 8.17957C34.0853 7.7678 34.2479 7.39319 34.5129 7.12074C34.7778 6.8483 35.1392 6.68111 35.5426 6.68111C35.9431 6.68111 36.3075 6.8483 36.5724 7.12074C36.8374 7.39319 37 7.76471 37 8.17957C37 8.59133 36.8374 8.96594 36.5724 9.23839C36.4068 9.40867 36.2021 9.5356 35.9762 9.60991V15.5387C35.9762 15.8328 35.7444 16.0712 35.4583 16.0712H28.5479C28.6021 16.517 28.6292 16.9721 28.6292 17.4365C28.6292 18.0557 28.578 18.6625 28.4817 19.2539H34.1756C34.2479 19.0526 34.3623 18.8762 34.5068 18.7276C34.7718 18.4551 35.1331 18.2879 35.5366 18.2879C35.9371 18.2879 36.3014 18.4551 36.5664 18.7276C36.8314 19 36.994 19.3715 36.994 19.7864C36.994 20.1981 36.8314 20.5728 36.5664 20.8452C36.3014 21.1176 35.9401 21.2848 35.5366 21.2848C35.1362 21.2848 34.7718 21.1176 34.5068 20.8452C34.3653 20.6997 34.2479 20.5201 34.1756 20.3189H28.2559C27.5874 22.839 26.0698 24.9969 24.0343 26.4458V27.1115H27.1207C27.193 26.9009 27.3104 26.7121 27.4609 26.5573C27.7199 26.2848 28.0872 26.1176 28.4877 26.1176C28.8912 26.1176 29.2525 26.2848 29.5175 26.5573C29.7825 26.8297 29.9451 27.2043 29.9451 27.6161C29.9451 28.031 29.7825 28.4025 29.5175 28.6749C29.2525 28.9474 28.8882 29.1146 28.4877 29.1146C28.0842 29.1146 27.7229 28.9474 27.4579 28.6749C27.3224 28.5356 27.211 28.3653 27.1357 28.1734H23.5134C23.2274 28.1734 22.9955 27.935 22.9955 27.6409V27.0991C22.1464 27.5666 21.225 27.9195 20.2585 28.1362V31.096C20.4542 31.1703 20.6288 31.291 20.7703 31.4365C21.0353 31.709 21.1979 32.0836 21.1979 32.4954C21.1979 32.9102 21.0353 33.2817 20.7703 33.5542C20.5054 33.8266 20.141 33.9938 19.7406 33.9938C19.3371 33.9938 18.9757 33.8266 18.7108 33.5542C18.4458 33.2817 18.2832 32.9071 18.2832 32.4954C18.2832 32.0805 18.4458 31.709 18.7108 31.4365C18.8553 31.2879 19.0269 31.1703 19.2227 31.096V28.3158C18.8132 28.3653 18.3976 28.3901 17.9761 28.3901C17.3468 28.3901 16.7295 28.3344 16.1303 28.226V32.4149C16.1303 32.709 15.8984 32.9474 15.6124 32.9474H9.84318C9.77092 33.1827 9.64746 33.3932 9.48185 33.5604C9.21688 33.8328 8.85254 34 8.45207 34C8.04858 34 7.68726 33.8328 7.42228 33.5604C7.15731 33.2879 6.99471 32.9133 6.99471 32.5015C6.99471 32.0867 7.15731 31.7152 7.42228 31.4427C7.68726 31.1703 8.0516 31.0031 8.45207 31.0031C8.85555 31.0031 9.21688 31.1703 9.48185 31.4427C9.60531 31.5697 9.70467 31.7183 9.77995 31.8824H15.0915V27.9845C14.1008 27.6997 13.1674 27.2694 12.3153 26.7183C12.2219 26.805 12.1015 26.8576 11.966 26.8576H8.81641C8.74414 27.0526 8.62972 27.226 8.4882 27.3684C8.22323 27.6409 7.85889 27.8081 7.45842 27.8081C7.05794 27.8081 6.6936 27.6409 6.42863 27.3684C6.16366 27.0991 6.00106 26.7245 6.00106 26.3096C6.00106 25.8947 6.16366 25.5232 6.42863 25.2508C6.6936 24.9783 7.05794 24.8111 7.45842 24.8111C7.85889 24.8111 8.22323 24.9783 8.4882 25.2508C8.63574 25.4025 8.75317 25.5882 8.82544 25.7926H11.0868C9.12354 24.0805 7.77157 21.6533 7.41325 18.8978H2.05957V24.3591C2.21916 24.4334 2.3667 24.5387 2.48714 24.6656C2.75212 24.9381 2.91471 25.3096 2.91471 25.7245C2.91471 26.1362 2.75212 26.5108 2.48714 26.7833C2.22217 27.0557 1.86084 27.2229 1.45736 27.2229C1.05688 27.2229 0.692546 27.0557 0.427572 26.7833C0.162598 26.5139 0 26.1393 0 25.7245C0 25.3127 0.162598 24.9381 0.427572 24.6656C0.59318 24.4954 0.797933 24.3684 1.02376 24.2941V18.3684C1.02376 18.0743 1.25562 17.8359 1.54167 17.8359H7.32292C7.31689 17.7028 7.31689 17.5697 7.31689 17.4365C7.31689 16.4737 7.43734 15.5418 7.66317 14.6533H2.82137C2.7491 14.8545 2.63468 15.031 2.49015 15.1796C2.22518 15.452 1.86385 15.6192 1.46037 15.6192C1.0599 15.6192 0.695557 15.452 0.430583 15.1796C0.165609 14.9071 0.00301107 14.5356 0.00301107 14.1207C0.00301107 13.709 0.165609 13.3344 0.430583 13.0619C0.695557 12.7895 1.05688 12.6223 1.46037 12.6223C1.86084 12.6223 2.22518 12.7895 2.49015 13.0619C2.63167 13.2074 2.7491 13.387 2.82137 13.5882H7.99137C8.68994 11.6718 9.89738 10.0124 11.4421 8.78019V8.21053H8.82243C8.75016 8.41486 8.63273 8.60062 8.48519 8.75232C8.22021 9.02477 7.85588 9.19195 7.4554 9.19195C7.05493 9.19195 6.69059 9.02477 6.42562 8.75232C6.16065 8.47988 5.99805 8.10836 5.99805 7.6935C5.99805 7.27864 6.16065 6.90402 6.42562 6.63468C6.69059 6.36223 7.05493 6.19505 7.4554 6.19505C7.85588 6.19505 8.22021 6.36223 8.48519 6.63468C8.62671 6.78019 8.73812 6.95356 8.8134 7.14551H11.963C12.249 7.14551 12.4809 7.3839 12.4809 7.67802V8.04954C13.2878 7.55108 14.1641 7.15789 15.0885 6.88855V2.11765H9.77995C9.70768 2.28173 9.60531 2.43344 9.48185 2.55728C9.21688 2.82972 8.85555 2.9969 8.45207 2.9969C8.0516 2.9969 7.68726 2.82972 7.42228 2.55728C7.15731 2.28483 6.99471 1.91331 6.99471 1.49845C6.99471 1.08669 7.15731 0.712074 7.42228 0.439628C7.68726 0.167183 8.04858 0 8.45207 0C8.85254 0 9.21688 0.167183 9.48185 0.439628C9.64746 0.609907 9.77092 0.820433 9.84318 1.05263H15.6094C15.8954 1.05263 16.1273 1.29102 16.1273 1.58514V6.64396C16.7265 6.5356 17.3438 6.47988 17.9731 6.47988ZM13.6853 16.3406H14.5374V16.2353V14.4923C14.5374 13.4954 14.9349 12.5913 15.5732 11.935C16.2116 11.2786 17.0938 10.87 18.0634 10.87C19.033 10.87 19.9122 11.2786 20.5505 11.935C21.1889 12.5913 21.5863 13.4985 21.5863 14.4923V16.2353V16.3406H22.2638C22.4144 16.3406 22.5378 16.4675 22.5378 16.6223V22.5851C22.5378 22.7399 22.4144 22.8669 22.2638 22.8669H13.6853C13.5347 22.8669 13.4113 22.7399 13.4113 22.5851V16.6223C13.4113 16.4675 13.5347 16.3406 13.6853 16.3406ZM15.9045 16.3406H20.2133V16.2353V14.4737C20.2133 13.8638 19.9694 13.3096 19.581 12.9071C19.1895 12.5046 18.6506 12.257 18.0604 12.257C17.4672 12.257 16.9282 12.5077 16.5368 12.9071C16.1453 13.3096 15.9045 13.8638 15.9045 14.4737V16.2353V16.3406ZM18.0785 19.6037L18.512 21.6687L17.3197 21.6718L17.6689 19.5789C17.3438 19.4706 17.1059 19.1579 17.1059 18.7864C17.1059 18.3282 17.4672 17.9567 17.9128 17.9567C18.3585 17.9567 18.7198 18.3282 18.7198 18.7864C18.7258 19.1919 18.4458 19.5263 18.0785 19.6037Z" fill="#3D7751"/>
</g>
<defs>
<clipPath id="clip0_276_1024">
<rect width="37" height="34" fill="white"/>
</clipPath>
</defs>
</svg>
