<svg width="28" height="29" viewBox="0 0 28 29" fill="none" xmlns="http://www.w3.org/2000/svg">
<g clip-path="url(#clip0_277_1028)">
<path d="M25.6549 14.8967C25.6666 14.7683 25.6666 14.6283 25.6666 14.5C25.6666 8.06 20.4399 2.83333 13.9999 2.83333C7.55992 2.83333 2.33325 8.06 2.33325 14.5C2.33325 20.5317 6.91825 25.5017 12.7866 26.1083C11.7016 25.2567 10.7799 24.195 10.0799 22.9817C6.88325 21.5 4.66659 18.2567 4.66659 14.5C4.66659 12.3417 5.40159 10.3583 6.63825 8.78333L13.2416 15.3867C13.8949 14.92 14.6066 14.535 15.3649 14.22L8.28325 7.13833C9.85825 5.90166 11.8416 5.16666 13.9999 5.16666C18.9466 5.16666 22.9833 9.005 23.3099 13.8583C24.1383 14.115 24.9316 14.465 25.6549 14.8967ZM19.8333 15.6667C16.1233 15.6667 12.9499 17.8483 11.6666 20.9167C12.9499 23.985 16.1233 26.1667 19.8333 26.1667C23.5433 26.1667 26.7166 23.985 27.9999 20.9167C26.7166 17.8483 23.5433 15.6667 19.8333 15.6667ZM19.8333 23.8333C18.2233 23.8333 16.9166 22.5267 16.9166 20.9167C16.9166 19.3067 18.2233 18 19.8333 18C21.4433 18 22.7499 19.3067 22.7499 20.9167C22.7499 22.5267 21.4433 23.8333 19.8333 23.8333ZM21.5833 20.9167C21.5833 21.885 20.8016 22.6667 19.8333 22.6667C18.8649 22.6667 18.0833 21.885 18.0833 20.9167C18.0833 19.9483 18.8649 19.1667 19.8333 19.1667C20.8016 19.1667 21.5833 19.9483 21.5833 20.9167Z" fill="#3D7751"/>
</g>
<defs>
<clipPath id="clip0_277_1028">
<rect width="28" height="28" fill="white" transform="translate(0 0.5)"/>
</clipPath>
</defs>
</svg>
