<svg width="31" height="30" viewBox="0 0 31 30" fill="none" xmlns="http://www.w3.org/2000/svg">
<path d="M5.75 8C7.26878 8 8.5 6.76878 8.5 5.25C8.5 3.73122 7.26878 2.5 5.75 2.5C4.23122 2.5 3 3.73122 3 5.25C3 6.76878 4.23122 8 5.75 8Z" fill="url(#paint0_linear_508_2811)"/>
<path d="M3 9.5H8.5V27.5H3V9.5Z" fill="url(#paint1_linear_508_2811)"/>
<path d="M21 9.5C18 9.5 16.505 10.495 16.5 10.5V9.5H11V27.5H16.5C16.5 23.6275 16.5 21.908 16.5 18C16.5 16.3205 17.8685 15 19.5 15C21.1555 15 22.5 16.3445 22.5 18V27.5H28V16.5C28 12.5 25.5 9.5 21 9.5Z" fill="url(#paint2_linear_508_2811)"/>
<path d="M18.251 5H13.749C12.751 5 12.7495 3.5 13.749 3.5H18.251C19.249 3.5 19.25 5 18.251 5Z" fill="url(#paint3_linear_508_2811)"/>
<path d="M25.751 7.5H22.249C21.251 7.5 21.2495 6 22.249 6H25.751C26.749 6 26.75 7.5 25.751 7.5Z" fill="url(#paint4_linear_508_2811)"/>
<defs>
<linearGradient id="paint0_linear_508_2811" x1="3" y1="4.60833" x2="8.50002" y2="4.60008" gradientUnits="userSpaceOnUse">
<stop stop-color="#ED7020"/>
<stop offset="1" stop-color="#BC0A0A"/>
</linearGradient>
<linearGradient id="paint1_linear_508_2811" x1="3" y1="16.4" x2="8.50003" y2="16.3975" gradientUnits="userSpaceOnUse">
<stop stop-color="#ED7020"/>
<stop offset="1" stop-color="#BC0A0A"/>
</linearGradient>
<linearGradient id="paint2_linear_508_2811" x1="11" y1="16.4" x2="28.0001" y2="16.3759" gradientUnits="userSpaceOnUse">
<stop stop-color="#ED7020"/>
<stop offset="1" stop-color="#BC0A0A"/>
</linearGradient>
<linearGradient id="paint3_linear_508_2811" x1="12.9999" y1="4.075" x2="18.9997" y2="4.039" gradientUnits="userSpaceOnUse">
<stop stop-color="#ED7020"/>
<stop offset="1" stop-color="#BC0A0A"/>
</linearGradient>
<linearGradient id="paint4_linear_508_2811" x1="21.4999" y1="6.575" x2="26.4998" y2="6.55" gradientUnits="userSpaceOnUse">
<stop stop-color="#ED7020"/>
<stop offset="1" stop-color="#BC0A0A"/>
</linearGradient>
</defs>
</svg>
