<svg width="31" height="30" viewBox="0 0 31 30" fill="none" xmlns="http://www.w3.org/2000/svg">
<path d="M10.25 11C10.17 11 10.09 10.9875 10.01 10.9605C7.9575 10.268 6.489 9.33854 5.6465 8.19554C5.4005 7.86254 5.4715 7.39304 5.805 7.14704C6.138 6.90054 6.607 6.97104 6.8535 7.30554C7.501 8.18304 8.758 8.95554 10.489 9.53954C10.8815 9.67204 11.0925 10.097 10.9595 10.4895C10.8545 10.8025 10.5625 11 10.25 11Z" fill="url(#paint0_linear_508_2803)"/>
<path d="M27.5 6L25 5.5L26.5 3C26.5 3 22.7155 4.0005 22.715 4C21.685 3.015 20.29 2.5 18.75 2.5C15.5295 2.5 13 4.8775 13 8C13 9.825 13.85 11.45 15.175 12.5H13C10.515 12.5 8.34 11.785 6.7 11C4.705 10.055 4.198 9.694 3.5195 9.0555C3.4945 9.032 3.467 9 3.394 9C3.246 9 3 9.1545 3 10.5C3 12.26 4.25 15 6 15C6.2715 15 6.5 15.2215 6.5 15.5C6.5 15.775 6.275 16 6 16C4.75 16 3 15 3 15C3 18.5 4.6865 19.5 7 19.5C7.275 19.5 7.5 19.725 7.5 20C7.5 20.275 7.275 20.5 7 20.5C6.282 20.5 5.069 20.381 4.5 20C4.5 22.407 7.006 23.5 9 23.5C9.275 23.5 9.5 23.725 9.5 24C9.5 24.2655 9.289 24.5 9 24.5C8.9055 24.5 7 24.5 7 24.5C7 24.5 6.5 27.5 14 27.5C21.3125 27.5 27.5 23.2315 27.5 16C27.5 13.0915 26.3435 10.465 24.5 8.5L27.5 6Z" fill="url(#paint1_linear_508_2803)"/>
<defs>
<linearGradient id="paint0_linear_508_2803" x1="5.49997" y1="8.53335" x2="10.9993" y2="8.52201" gradientUnits="userSpaceOnUse">
<stop stop-color="#ED7020"/>
<stop offset="1" stop-color="#BC0A0A"/>
</linearGradient>
<linearGradient id="paint1_linear_508_2803" x1="3" y1="12.0833" x2="27.5001" y2="12.0473" gradientUnits="userSpaceOnUse">
<stop stop-color="#ED7020"/>
<stop offset="1" stop-color="#BC0A0A"/>
</linearGradient>
</defs>
</svg>
