<svg width="31" height="30" viewBox="0 0 31 30" fill="none" xmlns="http://www.w3.org/2000/svg">
<path d="M15.5 2.5C8.5945 2.5 3 8.095 3 15C3 17.36 3.66 19.635 4.8 21.52L3.545 25.63C3.515 25.735 3.5 25.84 3.5 25.945C3.5 26.52 3.98 27 4.5545 27C4.655 27 4.7595 26.985 4.87 26.955L9.045 25.765C10.9295 26.9055 13.135 27.5 15.5 27.5C22.4055 27.5 28 21.905 28 15C28 8.095 22.4055 2.5 15.5 2.5ZM16.5 22C12.5 22 8 18 8 13.5C8 8.33 11.42 7.995 14.065 8C14.585 8 15 8.4695 15 8.99V12.5C15 12.98 14.5 13.5 14 13.5C13.5 13.5 13 13.5 13 14C13 14.5 13.426 14.975 14.5 16C15.453 16.9105 16.1025 17.5205 16.5 17.5C16.8445 17.4825 17 17.1485 17 17C17 16.5 17.5 16 18 16H22C22.5 16 23 16.5 23 17V17.865C23.005 21.33 18.725 22 16.5 22Z" fill="url(#paint0_linear_508_2806)"/>
<path d="M28.25 7.99994C27.999 7.99994 27.753 7.87294 27.6115 7.64294C25.7345 4.59294 22.9115 2.92094 22.883 2.90394C22.5215 2.70194 22.3935 2.24394 22.597 1.88344C22.799 1.52094 23.255 1.39244 23.6175 1.59644C23.7475 1.66944 26.811 3.47944 28.889 6.85694C29.106 7.20994 28.996 7.67194 28.6435 7.88844C28.5205 7.96444 28.385 7.99994 28.25 7.99994Z" fill="url(#paint1_linear_508_2806)"/>
<defs>
<linearGradient id="paint0_linear_508_2806" x1="3" y1="12.0833" x2="28.0001" y2="12.0458" gradientUnits="userSpaceOnUse">
<stop stop-color="#ED7020"/>
<stop offset="1" stop-color="#BC0A0A"/>
</linearGradient>
<linearGradient id="paint1_linear_508_2806" x1="22.5003" y1="3.99134" x2="29.0003" y2="3.98159" gradientUnits="userSpaceOnUse">
<stop stop-color="#ED7020"/>
<stop offset="1" stop-color="#BC0A0A"/>
</linearGradient>
</defs>
</svg>
