<svg id="Layer_1" data-name="Layer 1" xmlns="http://www.w3.org/2000/svg" xmlns:xlink="http://www.w3.org/1999/xlink" viewBox="0 0 2000 2000"><defs><linearGradient id="linear-gradient" x1="358.63" y1="1000.06" x2="1384.63" y2="1000.06" gradientUnits="userSpaceOnUse"><stop offset="0" stop-color="#ee7323"/><stop offset="0.8" stop-color="#e30613"/></linearGradient><linearGradient id="linear-gradient-2" x1="1026.41" y1="805.38" x2="1641.37" y2="805.38" xlink:href="#linear-gradient"/></defs><g id="Layer_5" data-name="Layer 5"><path d="M1126.57,864.39S1020.64,741.68,932.18,649.83a739.14,739.14,0,0,0-73.46-66.93C728.23,479.75,566.27,422.83,416.21,594.47c-158.4,181.18,48.3,390.31,161.39,511.25,118.72,127,379.87,409.59,380.3,409.46,3.82-1.18,16.09-13.46,29.25-24.94,24.59-21.44,55.4-47.77,59.19-51,88.65-74.21,34.87-30.16,41.72-35.73,60.48-49.08,61.39-51.92,120.16-103.07,60.9-53,114.66-99.35,176.41-150.88,0,0-71.17-80.21-127.72-144.41l-138.15,118.66,25.08,26.84-145,125.72s-109.63-120-216.24-233.72c-29.17-31.1-66.11-70.06-94.24-101.9-26.46-29.95-58-55.52-79.88-89.36-30.86-47.7-10.23-110.29,40.15-137.2,19.64-10.49,39-9.52,61-6.16,22.3,3.4,35.66,18.47,52.34,32.46,30.64,25.69,49.77,51.8,74.22,78.34,41.23,44.76,152.16,164.23,152.16,164.23Z" fill="url(#linear-gradient)"/><path d="M1026.42,697.4c.92,1.13,34,37.32,41.37,46.23,14.54,17.68,31.5,35.75,46.68,52.42,10.46,11.49,30.63,34.9,39,43.74,0,0,144.07-126.64,175.67-142.25,2.51-1.23,10.25-2.73,11.19-2.94,18.85-4.13,27.42-2.48,33-2.36,27.12.59,55.45,18.91,70.09,43.59,9,15.16,14.39,30.37,13.76,48.22-.61,17.64-3,36.82-12.17,52.19-8.56,14.4-21.37,25.72-34.18,36.24-45.94,37.69-84.76,76.8-128.4,111.82l127.47,141.63s101.25-77.9,170.17-168.64c53.6-70.57,80.83-192.39,45.16-291.36-18.17-50.39-54.17-101.73-101.64-134.39-37.56-25.84-80.12-40.1-122-45.29-89.42-11.08-178.68,44.34-244.43,99.68C1155.79,587.09,1025.54,696.32,1026.42,697.4Z" fill="url(#linear-gradient-2)"/></g></svg>