<svg id="Layer_1" data-name="Layer 1" xmlns="http://www.w3.org/2000/svg" xmlns:xlink="http://www.w3.org/1999/xlink" viewBox="0 0 2000 2000"><defs><linearGradient id="glee_gradient" x1="141.14" y1="1000" x2="1858.86" y2="1000" gradientUnits="userSpaceOnUse"><stop offset="0" stop-color="#ee7323"/><stop offset="0.8" stop-color="#e30613"/></linearGradient></defs><g id="Layer_5" data-name="Layer 5"><path d="M1384,996.17s-18-20.86-33-36.46a125,125,0,0,0-12.48-11.38c-22.17-17.53-49.68-27.2-75.17,2-26.91,30.79,8.21,66.33,27.42,86.88,20.16,21.58,64.52,69.6,64.6,69.58.65-.2,2.73-2.29,5-4.24,4.17-3.64,9.41-8.12,10.05-8.65,15.06-12.62,5.92-5.13,7.09-6.08,10.27-8.34,10.42-8.82,20.41-17.51,10.34-9,19.47-16.89,30-25.64,0,0-12.09-13.63-21.69-24.54l-23.47,20.16,3.92,4.22-24.77,21.23s-18.15-19.92-36.26-39.24c-4.95-5.29-11.23-11.91-16-17.32-4.5-5.09-9.85-9.43-13.57-15.18-5.24-8.11-1.74-18.75,6.82-23.32,3.33-1.78,6.62-1.62,10.36-1s6.06,3.14,8.89,5.52c5.21,4.37,8.46,8.8,12.61,13.31,7,7.61,25.85,27.91,25.85,27.91Z" fill="#e30b17"/><path d="M1367,967.79c.15.19,5.78,6.34,7,7.86,2.47,3,5.35,6.07,7.93,8.9,1.78,2,5.21,5.93,6.63,7.44q6.95-6.11,14-12c4.79-4,9.27-8.81,15-11.41,15.24-6.87,29.3,12.56,18.58,25.05-1.76,2.06-25.35,23.42-25.77,22.95l21.66,24.07s17.2-13.24,28.9-28.66c9.11-12,13.73-32.69,7.67-49.51-7.63-21.19-29.92-34.93-52.19-29.09-12.61,3.3-22.1,11.56-32,19.45C1383.15,953.88,1366.82,967.56,1367,967.79Z" fill="#e30b17"/><path d="M289.45,965.74H404.79v6.41c0,29.65-8.81,61.71-25.64,84.55-8,10.82-38.06,48.08-99.37,48.08-79.33,0-138.64-60.51-138.64-138.24s59.71-138.23,139.44-138.23c25.65,0,55.7,6.41,81.74,26.44a163.53,163.53,0,0,1,30.85,31.66l-22,20a141.47,141.47,0,0,0-25.25-27.65C333.07,868.38,313,856.36,281,856.36c-64.51,0-109.38,48.48-109.38,110.58,0,72.93,58.1,109.79,108.58,109.79,35.66,0,66.52-18,81.74-44.88a84.43,84.43,0,0,0,10.82-38.06H289.45Z" fill="#e30b17"/><path d="M477.26,807.87V1100H448.41V807.87Z" fill="#e30b17"/><path d="M854.8,1050.16A99.44,99.44,0,0,1,834.36,1077c-15.22,13.63-34.05,20.44-55.29,20.44-40.07,0-82.14-25.25-82.14-87,0-49.68,30.45-88.15,80.54-88.15,32.45,0,52.89,16,62.9,30.45,10.42,14.83,16.43,40.47,15.63,62.51H726.58c.4,34.46,24,56.49,52.89,56.49,13.62,0,24.44-4,34.06-12a66.27,66.27,0,0,0,17.23-22.84Zm-28.45-58.9c-4.81-26-24.44-43.28-48.88-43.28S733,966.41,728.58,991.26Z" fill="#e30b17"/><path d="M671.28,1053.83a99.61,99.61,0,0,1-20.43,26.84c-15.23,13.63-34.06,20.44-55.3,20.44-40.06,0-82.14-25.25-82.14-86.95,0-49.68,30.46-88.15,80.54-88.15,32.46,0,52.89,16,62.91,30.45,10.42,14.83,16.43,40.47,15.63,62.51H543.07c.4,34.46,24,56.49,52.89,56.49,13.62,0,24.44-4,34-12a66,66,0,0,0,17.23-22.84Zm-28.45-58.9c-4.8-26-24.44-43.28-48.88-43.28s-44.47,18.43-48.88,43.28Z" fill="#e30b17"/><path d="M921.58,1192.13H892.73V933.69h28.85v23.24c19.64-24.45,44.88-27.25,56.9-27.25,52.09,0,80.94,43.27,80.94,88.15,0,45.68-29.25,86.95-79.74,86.95-26.84,0-45.67-12-58.1-28Zm108.19-174.3c0-40.87-27.65-62.51-54.5-62.51s-55.29,22-55.29,62.11c0,34.06,21.64,61.7,55.7,61.7C1009.33,1079.13,1029.77,1051.09,1029.77,1017.83Z" fill="#e30b17"/><path d="M1093.7,807.87h28.85v145c5.21-6.81,20-23.24,47.68-23.24,19.64,0,37.67,8,47.68,22.84,8.42,12.42,9.62,26,9.62,44.48v103h-28.85V997.8c0-10-.8-21.64-7.61-30.46-5.61-7.21-14.42-12-27.25-12-10,0-20.83,2.81-29.25,12.83-11.22,13.22-12,32.85-12,44.87v87H1093.7Z" fill="#e30b17"/><path d="M1500.65,933.69h28.85v18c2.8-4.41,15.22-22,37.66-22,8.82,0,18.43,3.21,25.65,6.81l-13.63,26a29.66,29.66,0,0,0-16.83-5.61c-11.62,0-18.83,4.81-23.24,10.41-4.81,6.41-9.61,17.63-9.61,44.88V1100h-28.85Z" fill="#e30b17"/><circle cx="1633.41" cy="884.19" r="29.35" fill="#e30b17"/><rect x="1619.25" y="933.69" width="28.85" height="166.28" fill="#e30b17"/><path d="M1830,933.69h28.85V1100H1830v-23.24c-9.62,12.42-27.65,28-56.9,28-42.07,0-80.94-29.65-80.94-88.15,0-57.3,38.47-87,80.94-87,32.05,0,49.28,17.63,56.9,27.65Zm-108.19,82.94c0,35.66,20,62.5,54.49,62.5,35.26,0,55.3-29.24,55.3-62.1,0-42.87-29.65-61.71-55.3-61.71C1747.87,955.32,1721.82,976.16,1721.82,1016.63Z" fill="#e30b17"/><path d="M1384,996.17s-18-20.86-33-36.46a125,125,0,0,0-12.48-11.38c-22.17-17.53-49.68-27.2-75.17,2-26.91,30.79,8.21,66.33,27.42,86.88,20.16,21.58,64.52,69.6,64.6,69.58.65-.2,2.73-2.29,5-4.24,4.17-3.64,9.41-8.12,10.05-8.65,15.06-12.62,5.92-5.13,7.09-6.08,10.27-8.34,10.42-8.82,20.41-17.51,10.34-9,19.47-16.89,30-25.64,0,0-12.09-13.63-21.69-24.54l-23.47,20.16,3.92,4.22-24.77,21.23s-18.15-19.92-36.26-39.24c-4.95-5.29-11.23-11.91-16-17.32-4.5-5.09-9.85-9.43-13.57-15.18-5.24-8.11-1.74-18.75,6.82-23.32,3.33-1.78,6.62-1.62,10.36-1s6.06,3.14,8.89,5.52c5.21,4.37,8.46,8.8,12.61,13.31,7,7.61,25.85,27.91,25.85,27.91Z" fill="url(#glee_gradient)"/><path d="M1367,967.79c.15.19,5.78,6.34,7,7.86,2.47,3,5.35,6.07,7.93,8.9,1.78,2,5.21,5.93,6.63,7.44q6.95-6.11,14-12c4.79-4,9.27-8.81,15-11.41,15.24-6.87,29.3,12.56,18.58,25.05-1.76,2.06-25.35,23.42-25.77,22.95l21.66,24.07s17.2-13.24,28.9-28.66c9.11-12,13.73-32.69,7.67-49.51-7.63-21.19-29.92-34.93-52.19-29.09-12.61,3.3-22.1,11.56-32,19.45C1383.15,953.88,1366.82,967.56,1367,967.79Z" fill="url(#glee_gradient)"/><path d="M289.45,965.74H404.79v6.41c0,29.65-8.81,61.71-25.64,84.55-8,10.82-38.06,48.08-99.37,48.08-79.33,0-138.64-60.51-138.64-138.24s59.71-138.23,139.44-138.23c25.65,0,55.7,6.41,81.74,26.44a163.53,163.53,0,0,1,30.85,31.66l-22,20a141.47,141.47,0,0,0-25.25-27.65C333.07,868.38,313,856.36,281,856.36c-64.51,0-109.38,48.48-109.38,110.58,0,72.93,58.1,109.79,108.58,109.79,35.66,0,66.52-18,81.74-44.88a84.43,84.43,0,0,0,10.82-38.06H289.45Z" fill="url(#glee_gradient)"/><path d="M477.26,807.87V1100H448.41V807.87Z" fill="url(#glee_gradient)"/><path d="M854.8,1050.16A99.44,99.44,0,0,1,834.36,1077c-15.22,13.63-34.05,20.44-55.29,20.44-40.07,0-82.14-25.25-82.14-87,0-49.68,30.45-88.15,80.54-88.15,32.45,0,52.89,16,62.9,30.45,10.42,14.83,16.43,40.47,15.63,62.51H726.58c.4,34.46,24,56.49,52.89,56.49,13.62,0,24.44-4,34.06-12a66.27,66.27,0,0,0,17.23-22.84Zm-28.45-58.9c-4.81-26-24.44-43.28-48.88-43.28S733,966.41,728.58,991.26Z" fill="url(#glee_gradient)"/><path d="M671.28,1053.83a99.61,99.61,0,0,1-20.43,26.84c-15.23,13.63-34.06,20.44-55.3,20.44-40.06,0-82.14-25.25-82.14-86.95,0-49.68,30.46-88.15,80.54-88.15,32.46,0,52.89,16,62.91,30.45,10.42,14.83,16.43,40.47,15.63,62.51H543.07c.4,34.46,24,56.49,52.89,56.49,13.62,0,24.44-4,34-12a66,66,0,0,0,17.23-22.84Zm-28.45-58.9c-4.8-26-24.44-43.28-48.88-43.28s-44.47,18.43-48.88,43.28Z" fill="url(#glee_gradient)"/><path d="M921.58,1192.13H892.73V933.69h28.85v23.24c19.64-24.45,44.88-27.25,56.9-27.25,52.09,0,80.94,43.27,80.94,88.15,0,45.68-29.25,86.95-79.74,86.95-26.84,0-45.67-12-58.1-28Zm108.19-174.3c0-40.87-27.65-62.51-54.5-62.51s-55.29,22-55.29,62.11c0,34.06,21.64,61.7,55.7,61.7C1009.33,1079.13,1029.77,1051.09,1029.77,1017.83Z" fill="url(#glee_gradient)"/><path d="M1093.7,807.87h28.85v145c5.21-6.81,20-23.24,47.68-23.24,19.64,0,37.67,8,47.68,22.84,8.42,12.42,9.62,26,9.62,44.48v103h-28.85V997.8c0-10-.8-21.64-7.61-30.46-5.61-7.21-14.42-12-27.25-12-10,0-20.83,2.81-29.25,12.83-11.22,13.22-12,32.85-12,44.87v87H1093.7Z" fill="url(#glee_gradient)"/><path d="M1500.65,933.69h28.85v18c2.8-4.41,15.22-22,37.66-22,8.82,0,18.43,3.21,25.65,6.81l-13.63,26a29.66,29.66,0,0,0-16.83-5.61c-11.62,0-18.83,4.81-23.24,10.41-4.81,6.41-9.61,17.63-9.61,44.88V1100h-28.85Z" fill="url(#glee_gradient)"/><circle cx="1633.41" cy="884.19" r="29.35" fill="url(#glee_gradient)"/><rect x="1619.25" y="933.69" width="28.85" height="166.28" fill="url(#glee_gradient)"/><path d="M1830,933.69h28.85V1100H1830v-23.24c-9.62,12.42-27.65,28-56.9,28-42.07,0-80.94-29.65-80.94-88.15,0-57.3,38.47-87,80.94-87,32.05,0,49.28,17.63,56.9,27.65Zm-108.19,82.94c0,35.66,20,62.5,54.49,62.5,35.26,0,55.3-29.24,55.3-62.1,0-42.87-29.65-61.71-55.3-61.71C1747.87,955.32,1721.82,976.16,1721.82,1016.63Z" fill="url(#glee_gradient)"/></g></svg>